<svg width="101" height="51" viewBox="0 0 101 51" fill="none" xmlns="http://www.w3.org/2000/svg">
<path d="M1 39L9.64 11H15.56L24.2 39H20.72L18.56 31.92H6.64L4.48 39H1ZM7.48 28.88H17.68L12.88 13.04H12.32L7.48 28.88ZM26.1953 39L34.8353 11H40.7553L49.3953 39H45.9153L43.7553 31.92H31.8353L29.6753 39H26.1953ZM32.6753 28.88H42.8753L38.0753 13.04H37.5153L32.6753 28.88ZM51.3906 39L60.0306 11H65.9506L74.5906 39H71.1106L68.9506 31.92H57.0306L54.8706 39H51.3906ZM57.8706 28.88H68.0706L63.2706 13.04H62.7106L57.8706 28.88ZM87.9459 39.56C85.9726 39.56 84.2259 39.1467 82.7059 38.32C81.2126 37.4933 80.0393 36.3333 79.1859 34.84C78.3593 33.32 77.9459 31.5333 77.9459 29.48V28.96C77.9459 26.9333 78.3593 25.16 79.1859 23.64C80.0393 22.12 81.2126 20.9467 82.7059 20.12C84.2259 19.2933 85.9726 18.88 87.9459 18.88C89.9193 18.88 91.6526 19.2933 93.1459 20.12C94.6659 20.9467 95.8393 22.12 96.6659 23.64C97.5193 25.16 97.9459 26.9333 97.9459 28.96V29.48C97.9459 31.5333 97.5193 33.32 96.6659 34.84C95.8393 36.3333 94.6659 37.4933 93.1459 38.32C91.6526 39.1467 89.9193 39.56 87.9459 39.56ZM87.9459 36.72C90.0259 36.72 91.6793 36.0667 92.9059 34.76C94.1593 33.4267 94.7859 31.64 94.7859 29.4V29.04C94.7859 26.8 94.1593 25.0267 92.9059 23.72C91.6793 22.3867 90.0259 21.72 87.9459 21.72C85.8926 21.72 84.2393 22.3867 82.9859 23.72C81.7326 25.0267 81.1059 26.8 81.1059 29.04V29.4C81.1059 31.64 81.7326 33.4267 82.9859 34.76C84.2393 36.0667 85.8926 36.72 87.9459 36.72Z" fill="black"/>
</svg>
